HIERARCHY
ROOT Hips
{
  OFFSET 5.72205e-005 65.662 3.42586
  CHANNELS 6 Xposition Yposition Zposition Zrotation Xrotation Yrotation
  JOINT Chest
  {
    OFFSET 0 8.7983 -4.7612
    CHANNELS 3 Zrotation Xrotation Yrotation
    JOINT Chest2
    {
      OFFSET 0 8.0291 0.4195
      CHANNELS 3 Zrotation Xrotation Yrotation
      JOINT Chest3
      {
        OFFSET 0 9.9351 -2.2114
        CHANNELS 3 Zrotation Xrotation Yrotation
        JOINT Neck
        {
          OFFSET 0 22.3885 -0.4656
          CHANNELS 3 Zrotation Xrotation Yrotation
          JOINT Head
          {
            OFFSET -0.0001 12.643 3.4389
            CHANNELS 3 Zrotation Xrotation Yrotation
            End Site
            {
              OFFSET 0.0001 17.6655 0.5274
            }
          }
        }
        JOINT LeftCollar
        {
          OFFSET 2.2603 21.606 7.4023
          CHANNELS 3 Zrotation Xrotation Yrotation
          JOINT LeftShoulder
          {
            OFFSET 13.5163 -1.1332 -5.0146
            CHANNELS 3 Zrotation Xrotation Yrotation
            JOINT LeftElbow
            {
              OFFSET -0.0995 -28.05 -0.2431
              CHANNELS 3 Zrotation Xrotation Yrotation
              JOINT LeftWrist
              {
                OFFSET 0.0679 -23.3996 -0.1402
                CHANNELS 3 Zrotation Xrotation Yrotation
                JOINT LeftFinger1
                {
                  OFFSET 0.7932 -9.069 2.5189
                  CHANNELS 3 Zrotation Xrotation Yrotation
                  JOINT LeftFinger11
                  {
                    OFFSET -0.8272 -3.3923 0.5977
                    CHANNELS 3 Zrotation Xrotation Yrotation
                    JOINT LeftFinger12
                    {
                      OFFSET -0.5649 -2.3158 0.4082
                      CHANNELS 3 Zrotation Xrotation Yrotation
                      End Site
                      {
                        OFFSET -0.4919 -1.6479 0.2673
                      }
                    }
                  }
                }
                JOINT LeftFinger2
                {
                  OFFSET 0.9159 -9.2044 0.2193
                  CHANNELS 3 Zrotation Xrotation Yrotation
                  JOINT LeftFinger21
                  {
                    OFFSET 0.0117 -4.1944 -0.0248
                    CHANNELS 3 Zrotation Xrotation Yrotation
                    JOINT LeftFinger22
                    {
                      OFFSET 0.0071 -2.3249 -0.0142
                      CHANNELS 3 Zrotation Xrotation Yrotation
                      End Site
                      {
                        OFFSET -0.1475 -2.0882 0.0028
                      }
                    }
                  }
                }
                JOINT LeftFinger3
                {
                  OFFSET 0.6113 -8.7231 -2.0637
                  CHANNELS 3 Zrotation Xrotation Yrotation
                  JOINT LeftFinger31
                  {
                    OFFSET -0.1927 -3.8059 -0.2383
                    CHANNELS 3 Zrotation Xrotation Yrotation
                    JOINT LeftFinger32
                    {
                      OFFSET -0.1091 -2.1688 -0.1362
                      CHANNELS 3 Zrotation Xrotation Yrotation
                      End Site
                      {
                        OFFSET -0.2358 -1.9176 -0.0906
                      }
                    }
                  }
                }
                JOINT LeftFinger4
                {
                  OFFSET -0.6151 -8.0947 -3.5641
                  CHANNELS 3 Zrotation Xrotation Yrotation
                  JOINT LeftFinger41
                  {
                    OFFSET -0.4882 -2.341 -0.6462
                    CHANNELS 3 Zrotation Xrotation Yrotation
                    JOINT LeftFinger42
                    {
                      OFFSET -0.3575 -1.7167 -0.4742
                      CHANNELS 3 Zrotation Xrotation Yrotation
                      End Site
                      {
                        OFFSET -0.4187 -1.5237 -0.3496
                      }
                    }
                  }
                }
                JOINT LeftFinger0
                {
                  OFFSET -1.42 -1.8761 1.4223
                  CHANNELS 3 Zrotation Xrotation Yrotation
                  JOINT LeftFinger01
                  {
                    OFFSET -1.1471 -3.4929 2.6334
                    CHANNELS 3 Zrotation Xrotation Yrotation
                    JOINT LeftFinger02
                    {
                      OFFSET -0.823 -2.3 1.6571
                      CHANNELS 3 Zrotation Xrotation Yrotation
                      End Site
                      {
                        OFFSET -0.5822 -1.6914 1.1582
                      }
                    }
                  }
                }
              }
            }
          }
        }
        JOINT RightCollar
        {
          OFFSET -2.2603 21.606 7.4023
          CHANNELS 3 Zrotation Xrotation Yrotation
          JOINT RightShoulder
          {
            OFFSET -13.5187 -1.1334 -5.0155
            CHANNELS 3 Zrotation Xrotation Yrotation
            JOINT RightElbow
            {
              OFFSET 0.0994 -28.0499 -0.2431
              CHANNELS 3 Zrotation Xrotation Yrotation
              JOINT RightWrist
              {
                OFFSET -0.0679 -23.3996 -0.1402
                CHANNELS 3 Zrotation Xrotation Yrotation
                JOINT RightFinger1
                {
                  OFFSET -0.7932 -9.0691 2.5189
                  CHANNELS 3 Zrotation Xrotation Yrotation
                  JOINT RightFinger11
                  {
                    OFFSET 0.8272 -3.3923 0.5977
                    CHANNELS 3 Zrotation Xrotation Yrotation
                    JOINT RightFinger12
                    {
                      OFFSET 0.565 -2.3158 0.4082
                      CHANNELS 3 Zrotation Xrotation Yrotation
                      End Site
                      {
                        OFFSET 0.4919 -1.6479 0.2673
                      }
                    }
                  }
                }
                JOINT RightFinger2
                {
                  OFFSET -0.916 -9.2044 0.2193
                  CHANNELS 3 Zrotation Xrotation Yrotation
                  JOINT RightFinger21
                  {
                    OFFSET -0.0117 -4.1944 -0.0248
                    CHANNELS 3 Zrotation Xrotation Yrotation
                    JOINT RightFinger22
                    {
                      OFFSET -0.0071 -2.3249 -0.0142
                      CHANNELS 3 Zrotation Xrotation Yrotation
                      End Site
                      {
                        OFFSET 0.1475 -2.0882 0.0028
                      }
                    }
                  }
                }
                JOINT RightFinger3
                {
                  OFFSET -0.6113 -8.7231 -2.0637
                  CHANNELS 3 Zrotation Xrotation Yrotation
                  JOINT RightFinger31
                  {
                    OFFSET 0.1927 -3.8059 -0.2383
                    CHANNELS 3 Zrotation Xrotation Yrotation
                    JOINT RightFinger32
                    {
                      OFFSET 0.1091 -2.1688 -0.1362
                      CHANNELS 3 Zrotation Xrotation Yrotation
                      End Site
                      {
                        OFFSET 0.2358 -1.9176 -0.0906
                      }
                    }
                  }
                }
                JOINT RightFinger4
                {
                  OFFSET 0.6151 -8.0947 -3.564
                  CHANNELS 3 Zrotation Xrotation Yrotation
                  JOINT RightFinger41
                  {
                    OFFSET 0.4882 -2.341 -0.6462
                    CHANNELS 3 Zrotation Xrotation Yrotation
                    JOINT RightFinger42
                    {
                      OFFSET 0.3574 -1.7166 -0.4742
                      CHANNELS 3 Zrotation Xrotation Yrotation
                      End Site
                      {
                        OFFSET 0.4187 -1.5237 -0.3496
                      }
                    }
                  }
                }
                JOINT RightFinger0
                {
                  OFFSET 1.4199 -1.8761 1.4221
                  CHANNELS 3 Zrotation Xrotation Yrotation
                  JOINT RightFinger01
                  {
                    OFFSET 1.1472 -3.4929 2.6336
                    CHANNELS 3 Zrotation Xrotation Yrotation
                    JOINT RightFinger02
                    {
                      OFFSET 0.8229 -2.3 1.6571
                      CHANNELS 3 Zrotation Xrotation Yrotation
                      End Site
                      {
                        OFFSET 0.5822 -1.6914 1.1582
                      }
                    }
                  }
                }
              }
            }
          }
        }
      }
    }
  }
  JOINT RightHip
  {
    OFFSET -9.412 3.9771 -0.7758
    CHANNELS 3 Zrotation Xrotation Yrotation
    JOINT RightKnee
    {
      OFFSET -0.7531 -40.938 0
      CHANNELS 3 Zrotation Xrotation Yrotation
      JOINT RightAnkle
      {
        OFFSET 0 -40.1986 0
        CHANNELS 3 Zrotation Xrotation Yrotation
        JOINT RightToe
        {
          OFFSET 0 -4.4182 9.239
          CHANNELS 3 Zrotation Xrotation Yrotation
          End Site
          {
            OFFSET 0 0 6.1981
          }
        }
      }
    }
  }
  JOINT LeftHip
  {
    OFFSET 9.4119 3.9773 -0.7758
    CHANNELS 3 Zrotation Xrotation Yrotation
    JOINT LeftKnee
    {
      OFFSET 0.7532 -40.9383 0
      CHANNELS 3 Zrotation Xrotation Yrotation
      JOINT LeftAnkle
      {
        OFFSET 0 -40.1986 0
        CHANNELS 3 Zrotation Xrotation Yrotation
        JOINT LeftToe
        {
          OFFSET 0 -4.4182 9.239
          CHANNELS 3 Zrotation Xrotation Yrotation
          End Site
          {
            OFFSET 0 0 6.1981
          }
        }
      }
    }
  }
}
MOTION
Frames:	4
Frame Time:	0.0333333
5.72205e-005 65.662 3.42586 0 0 -0 0 0 -0 0 0 -0 0 0 -0 0 0 -0 0 0 -0 0 0 -12.5014 88.1196 14.2451 10.6914 -0.00160068 -0.00239207 0.000740045 -8.4365e-005 7.00714e-005 -9.52055e-007 9.93923e-017 -1.98785e-016 -1.59028e-015 9.93923e-017 -5.96354e-016 -1.59028e-015 -9.93923e-017 -5.96354e-016 -1.59028e-015 9.93923e-017 -1.98785e-016 -1.59028e-015 -0.0128176 0.00232552 8.52707e-005 9.93923e-017 5.96354e-016 -0 9.93923e-017 -1.98785e-016 -1.59028e-015 -0.0160551 0.00299681 0.000857156 -2.48481e-016 0 3.18055e-015 9.93923e-017 -1.98785e-016 -1.59028e-015 -0.0125865 0.0031206 0.00282719 0 1.98785e-016 -0 9.93923e-017 -1.98785e-016 -1.59028e-015 9.93923e-017 -5.96354e-016 -1.59028e-015 -9.93923e-017 -5.96354e-016 -1.59028e-015 -0.865644 0.16582 7.03859 -88.0329 10.2057 -10.5567 0.0015593 -0.00248883 -0.000788628 7.87605e-005 4.10553e-005 1.24965e-005 -3.97569e-016 -7.95139e-016 3.18055e-015 -1.98785e-016 -3.97569e-016 3.18055e-015 -1.98785e-016 0 3.18055e-015 -3.97569e-016 -7.95139e-016 3.18055e-015 0.0129473 0.00231697 -8.70038e-005 9.93923e-017 -7.95139e-016 1.59028e-015 -3.97569e-016 -7.95139e-016 3.18055e-015 0.0163314 0.00303369 -0.000872333 3.97569e-016 7.95139e-016 -3.18055e-015 -3.97569e-016 -7.95139e-016 3.18055e-015 0.0145763 0.00367772 -0.00326275 9.93923e-017 -3.97569e-016 -0 -3.97569e-016 -7.95139e-016 3.18055e-015 -1.98785e-016 -3.97569e-016 3.18055e-015 -1.98785e-016 0 3.18055e-015 3.42482 1.32465 -0.0626183 0.000117508 0.717283 0.000978199 -3.4257 -2.04197 -0.0604716 6.47761e-025 0 -0 -3.42483 1.34017 0.0627307 -0.000193936 0.682302 -0.0013703 3.42574 -2.02253 0.0595886 -8.45714e-024 0 -7.40531e-025 
-0.124327 39.7202 -16.2818 120.476 -60.3704 -0.348705 -0.056826 -0.102054 -0.0896144 -0.113787 -0.20401 -0.179338 -0.113787 -0.204013 -0.179339 0.000431478 -0.237604 0.000669196 2.23263e-006 -0.272705 -4.11028e-006 -4.06778 -0.103796 -12.6597 90.8386 -22.1578 11.5701 9.44509 -23.1878 9.80214 39.8814 -6.13388 3.48066 -2.9127e-006 1.15376e-005 7.63344e-006 0 0 -7.95139e-016 -3.18055e-015 3.97569e-016 -0 -2.9127e-006 1.15376e-005 7.63344e-006 -0.0128171 0.00232463 8.67175e-005 5.51738e-033 -3.97569e-016 7.95139e-016 -2.9127e-006 1.15376e-005 7.63344e-006 -0.0160283 0.00296935 0.000852021 9.54166e-015 -3.97569e-016 -7.95139e-016 -2.9127e-006 1.15376e-005 7.63344e-006 -0.0126724 0.00312661 0.00284324 -3.18055e-015 -7.95139e-016 -7.95139e-016 -2.9127e-006 1.15376e-005 7.63344e-006 0 0 -7.95139e-016 -3.18055e-015 3.97569e-016 -0 3.20079 0.0592965 7.19743 -90.9788 -26.1591 -12.2248 -9.40752 -22.9967 -10.3607 -39.8931 -5.70743 -4.3726 -1.44372e-006 2.27296e-006 -6.77086e-006 2.23344e-006 1.6312e-006 -1.03469e-005 1.00327e-005 -3.04819e-006 3.84277e-006 -1.44372e-006 2.27296e-006 -6.77086e-006 0.0129481 0.00231414 -8.62995e-005 6.64396e-006 2.84203e-006 -4.19979e-006 -1.44372e-006 2.27296e-006 -6.77086e-006 0.0163243 0.00303653 -0.000875631 5.62293e-006 1.56006e-006 -2.30374e-006 -1.44372e-006 2.27296e-006 -6.77086e-006 0.0145967 0.00369125 -0.00326767 5.20055e-006 -4.59086e-007 -1.09707e-005 -1.44372e-006 2.27296e-006 -6.77086e-006 2.23344e-006 1.6312e-006 -1.03469e-005 1.00327e-005 -3.04819e-006 3.84277e-006 -80.0326 -80.0889 -94.5717 -156.232 83.9894 156.309 -6.4159 27.4853 0.956532 -9.24349e-015 3.18055e-015 1.78906e-015 75.5677 -79.7181 89.8683 157.833 83.586 -158.15 6.16256 26.2539 -0.978495 -1.50678e-006 -1.61826e-006 -3.06352e-006 
1.32017 12.7434 -35.3144 13.8077 -84.0235 -177.417 -0.0900471 -0.150084 -0.141637 -0.180474 -0.29992 -0.283499 -0.180466 -0.299918 -0.283495 0.000186058 -0.47562 0.000285403 -3.51608e-006 -0.49264 -2.71127e-007 -6.52342 0.0148288 -13.4563 91.2956 -42.8403 11.444 14.3376 -36.1213 14.5643 63.5495 -8.40491 7.40339 -5.29128e-007 3.3387e-007 3.04852e-006 1.98785e-015 -4.77083e-015 -1.93815e-015 1.59028e-015 -4.77083e-015 -1.88845e-015 -5.29128e-007 3.3387e-007 3.04852e-006 -0.0128322 0.00232289 8.72232e-005 -1.05951e-006 1.12943e-005 6.09701e-006 -5.29128e-007 3.3387e-007 3.04852e-006 -0.0160223 0.00300113 0.000862989 7.01626e-006 3.31804e-006 -1.49875e-007 -5.29128e-007 3.3387e-007 3.04852e-006 -0.0125148 0.00311264 0.00282166 4.72805e-006 -8.42125e-007 -6.91204e-006 -5.29128e-007 3.3387e-007 3.04852e-006 1.98785e-015 -4.77083e-015 -1.93815e-015 1.59028e-015 -4.77083e-015 -1.88845e-015 5.65065 0.166663 7.98456 -91.9435 -46.8506 -12.7067 -14.4318 -35.8365 -15.4387 -63.5387 -7.48366 -8.60479 -3.97569e-016 3.18055e-015 -2.98177e-016 0 3.18055e-015 -0 -5.51738e-033 1.59028e-015 1.98785e-016 -3.97569e-016 3.18055e-015 -2.98177e-016 0.01295 0.0023295 -8.20221e-005 -1.53868e-006 1.40802e-005 -1.11375e-005 -3.97569e-016 3.18055e-015 -2.98177e-016 0.0163184 0.00303995 -0.000874308 2.10448e-006 -7.49541e-006 7.57333e-006 -3.97569e-016 3.18055e-015 -2.98177e-016 0.0145568 0.00367299 -0.00325426 -3.97569e-016 -3.18055e-015 -6.95746e-016 -3.97569e-016 3.18055e-015 -2.98177e-016 0 3.18055e-015 -0 -5.51738e-033 1.59028e-015 1.98785e-016 -147.912 -37.1337 -162.387 -175.422 30.6161 171.401 -8.24335 43.94 0.166418 -2.0174e-006 4.60325e-006 -2.39087e-006 148.184 -37.3073 163.201 175.309 31.1465 -170.911 8.16008 44.4471 0.0875916 -3.31886e-007 -5.74961e-008 2.64746e-007 
0.313583 15.9682 -34.2607 7.93753 -87.345 -174.683 -0.0862135 -0.113193 -0.134785 -0.172689 -0.226126 -0.269732 -0.17269 -0.226126 -0.269733 -0.000208282 -0.712401 -0.00031967 -1.00784e-006 -0.629677 -5.72027e-007 -6.4233 0.483997 -15.2544 91.2929 -38.8375 11.6151 13.0448 -33.1739 13.6767 60.8284 -9.00541 7.46596 1.65185e-006 -3.96727e-006 3.98023e-007 -2.33661e-006 6.71232e-006 2.82532e-006 4.77083e-015 4.35266e-007 -1.19271e-014 1.65185e-006 -3.96727e-006 3.98023e-007 -0.0128114 0.00232579 8.81644e-005 2.77414e-006 4.29121e-007 1.59567e-006 1.65185e-006 -3.96727e-006 3.98023e-007 -0.0160335 0.00299356 0.000865285 2.38542e-015 0 -1.98785e-016 1.65185e-006 -3.96727e-006 3.98023e-007 -0.0126262 0.0031288 0.00283661 7.95139e-016 0 6.75868e-015 1.65185e-006 -3.96727e-006 3.98023e-007 -2.33661e-006 6.71232e-006 2.82532e-006 4.77083e-015 4.35266e-007 -1.19271e-014 5.54027 0.611235 9.76042 -91.8173 -42.9034 -12.7364 -13.0974 -32.9059 -14.4716 -60.8197 -8.14285 -8.63518 -1.269e-031 1.59028e-015 4.57205e-015 -0 0 2.98177e-015 -1.59028e-015 -3.18055e-015 1.59028e-015 -1.269e-031 1.59028e-015 4.57205e-015 0.012973 0.00232752 -8.37814e-005 5.51738e-033 1.59028e-015 -1.98785e-016 -1.269e-031 1.59028e-015 4.57205e-015 0.0163521 0.00304388 -0.000877482 7.95139e-016 -3.18055e-015 1.39149e-015 -1.269e-031 1.59028e-015 4.57205e-015 0.0146428 0.00368517 -0.0032742 -1.59028e-015 0 7.95139e-016 -1.269e-031 1.59028e-015 4.57205e-015 -0 0 2.98177e-015 -1.59028e-015 -3.18055e-015 1.59028e-015 -145.435 -44.0819 -160.314 -174.842 37.2292 171.521 -8.42546 41.591 0.434004 1.59028e-015 4.00915e-006 -7.95139e-016 145.519 -44.1091 160.495 174.814 37.3555 -171.423 8.42412 41.7286 -0.397275 1.8015e-006 -4.03667e-006 -3.52515e-007 
